<mxfile host="app.diagrams.net" agent="Mozilla/5.0 (X11; Linux x86_64) AppleWebKit/537.36 (KHTML, like Gecko) Chrome/119.0.0.0 Safari/537.36" version="24.7.14" pages="2">
  <diagram name="PÃ¡gina-1" id="SfU7p1wR3tfU9HKE7pcG">
    <mxGraphModel grid="1" page="1" gridSize="10" guides="1" tooltips="1" connect="1" arrows="1" fold="1" pageScale="1" pageWidth="827" pageHeight="1169" math="0" shadow="0">
      <root>
        <mxCell id="0" />
        <mxCell id="1" parent="0" />
        <mxCell id="R8Wpr6JiOGL7sGA5M8O1-3" style="edgeStyle=orthogonalEdgeStyle;rounded=0;orthogonalLoop=1;jettySize=auto;html=1;exitX=1;exitY=0.5;exitDx=0;exitDy=0;entryX=0;entryY=0.5;entryDx=0;entryDy=0;endArrow=none;endFill=0;" edge="1" parent="1" source="VRICS7NsIB1Zi5LBiso_-19" target="R8Wpr6JiOGL7sGA5M8O1-1">
          <mxGeometry relative="1" as="geometry" />
        </mxCell>
        <mxCell id="VRICS7NsIB1Zi5LBiso_-19" value="User" style="rounded=1;arcSize=10;whiteSpace=wrap;html=1;align=center;" vertex="1" parent="1">
          <mxGeometry x="40" y="120" width="100" height="40" as="geometry" />
        </mxCell>
        <mxCell id="R8Wpr6JiOGL7sGA5M8O1-4" style="edgeStyle=orthogonalEdgeStyle;rounded=0;orthogonalLoop=1;jettySize=auto;html=1;entryX=1;entryY=0.5;entryDx=0;entryDy=0;endArrow=none;endFill=0;" edge="1" parent="1" source="VRICS7NsIB1Zi5LBiso_-20" target="R8Wpr6JiOGL7sGA5M8O1-1">
          <mxGeometry relative="1" as="geometry" />
        </mxCell>
        <mxCell id="R8Wpr6JiOGL7sGA5M8O1-6" style="edgeStyle=orthogonalEdgeStyle;rounded=0;orthogonalLoop=1;jettySize=auto;html=1;entryX=0;entryY=0.5;entryDx=0;entryDy=0;endArrow=none;endFill=0;" edge="1" parent="1" source="VRICS7NsIB1Zi5LBiso_-20" target="R8Wpr6JiOGL7sGA5M8O1-5">
          <mxGeometry relative="1" as="geometry" />
        </mxCell>
        <mxCell id="VRICS7NsIB1Zi5LBiso_-20" value="Chat" style="rounded=1;arcSize=10;whiteSpace=wrap;html=1;align=center;" vertex="1" parent="1">
          <mxGeometry x="364" y="120" width="100" height="40" as="geometry" />
        </mxCell>
        <mxCell id="R8Wpr6JiOGL7sGA5M8O1-7" style="edgeStyle=orthogonalEdgeStyle;rounded=0;orthogonalLoop=1;jettySize=auto;html=1;entryX=1;entryY=0.5;entryDx=0;entryDy=0;endArrow=none;endFill=0;" edge="1" parent="1" source="VRICS7NsIB1Zi5LBiso_-21" target="R8Wpr6JiOGL7sGA5M8O1-5">
          <mxGeometry relative="1" as="geometry" />
        </mxCell>
        <mxCell id="VRICS7NsIB1Zi5LBiso_-21" value="Message" style="rounded=1;arcSize=10;whiteSpace=wrap;html=1;align=center;" vertex="1" parent="1">
          <mxGeometry x="700" y="120" width="100" height="40" as="geometry" />
        </mxCell>
        <mxCell id="VRICS7NsIB1Zi5LBiso_-2" value="&lt;font style=&quot;font-size: 24px;&quot;&gt;CHAT APP&lt;/font&gt;" style="text;html=1;align=center;verticalAlign=middle;resizable=0;points=[];autosize=1;strokeColor=none;fillColor=none;" vertex="1" parent="1">
          <mxGeometry x="343" y="40" width="140" height="40" as="geometry" />
        </mxCell>
        <mxCell id="SaL2PeA7gjWB8aAEkNeD-6" value="Message" style="shape=table;startSize=30;container=1;collapsible=1;childLayout=tableLayout;fixedRows=1;rowLines=0;fontStyle=1;align=center;resizeLast=1;html=1;" vertex="1" parent="1">
          <mxGeometry x="350" y="320" width="160" height="150" as="geometry" />
        </mxCell>
        <mxCell id="SaL2PeA7gjWB8aAEkNeD-7" value="" style="shape=tableRow;horizontal=0;startSize=0;swimlaneHead=0;swimlaneBody=0;fillColor=none;collapsible=0;dropTarget=0;points=[[0,0.5],[1,0.5]];portConstraint=eastwest;top=0;left=0;right=0;bottom=1;" vertex="1" parent="SaL2PeA7gjWB8aAEkNeD-6">
          <mxGeometry y="30" width="160" height="30" as="geometry" />
        </mxCell>
        <mxCell id="SaL2PeA7gjWB8aAEkNeD-8" value="PK" style="shape=partialRectangle;connectable=0;fillColor=none;top=0;left=0;bottom=0;right=0;fontStyle=1;overflow=hidden;whiteSpace=wrap;html=1;" vertex="1" parent="SaL2PeA7gjWB8aAEkNeD-7">
          <mxGeometry width="30" height="30" as="geometry">
            <mxRectangle width="30" height="30" as="alternateBounds" />
          </mxGeometry>
        </mxCell>
        <mxCell id="SaL2PeA7gjWB8aAEkNeD-9" value="id" style="shape=partialRectangle;connectable=0;fillColor=none;top=0;left=0;bottom=0;right=0;align=left;spacingLeft=6;fontStyle=5;overflow=hidden;whiteSpace=wrap;html=1;" vertex="1" parent="SaL2PeA7gjWB8aAEkNeD-7">
          <mxGeometry x="30" width="130" height="30" as="geometry">
            <mxRectangle width="130" height="30" as="alternateBounds" />
          </mxGeometry>
        </mxCell>
        <mxCell id="ckaE4S-ncni6q_CTNCzI-4" value="" style="shape=tableRow;horizontal=0;startSize=0;swimlaneHead=0;swimlaneBody=0;fillColor=none;collapsible=0;dropTarget=0;points=[[0,0.5],[1,0.5]];portConstraint=eastwest;top=0;left=0;right=0;bottom=0;" vertex="1" parent="SaL2PeA7gjWB8aAEkNeD-6">
          <mxGeometry y="60" width="160" height="30" as="geometry" />
        </mxCell>
        <mxCell id="ckaE4S-ncni6q_CTNCzI-5" value="" style="shape=partialRectangle;connectable=0;fillColor=none;top=0;left=0;bottom=0;right=0;editable=1;overflow=hidden;whiteSpace=wrap;html=1;" vertex="1" parent="ckaE4S-ncni6q_CTNCzI-4">
          <mxGeometry width="30" height="30" as="geometry">
            <mxRectangle width="30" height="30" as="alternateBounds" />
          </mxGeometry>
        </mxCell>
        <mxCell id="ckaE4S-ncni6q_CTNCzI-6" value="&lt;div&gt;content&lt;/div&gt;" style="shape=partialRectangle;connectable=0;fillColor=none;top=0;left=0;bottom=0;right=0;align=left;spacingLeft=6;overflow=hidden;whiteSpace=wrap;html=1;" vertex="1" parent="ckaE4S-ncni6q_CTNCzI-4">
          <mxGeometry x="30" width="130" height="30" as="geometry">
            <mxRectangle width="130" height="30" as="alternateBounds" />
          </mxGeometry>
        </mxCell>
        <mxCell id="SaL2PeA7gjWB8aAEkNeD-10" value="" style="shape=tableRow;horizontal=0;startSize=0;swimlaneHead=0;swimlaneBody=0;fillColor=none;collapsible=0;dropTarget=0;points=[[0,0.5],[1,0.5]];portConstraint=eastwest;top=0;left=0;right=0;bottom=0;" vertex="1" parent="SaL2PeA7gjWB8aAEkNeD-6">
          <mxGeometry y="90" width="160" height="30" as="geometry" />
        </mxCell>
        <mxCell id="SaL2PeA7gjWB8aAEkNeD-11" value="" style="shape=partialRectangle;connectable=0;fillColor=none;top=0;left=0;bottom=0;right=0;editable=1;overflow=hidden;whiteSpace=wrap;html=1;" vertex="1" parent="SaL2PeA7gjWB8aAEkNeD-10">
          <mxGeometry width="30" height="30" as="geometry">
            <mxRectangle width="30" height="30" as="alternateBounds" />
          </mxGeometry>
        </mxCell>
        <mxCell id="SaL2PeA7gjWB8aAEkNeD-12" value="&lt;div&gt;&lt;span style=&quot;background-color: initial;&quot;&gt;send_timestamp&lt;/span&gt;&lt;br&gt;&lt;/div&gt;" style="shape=partialRectangle;connectable=0;fillColor=none;top=0;left=0;bottom=0;right=0;align=left;spacingLeft=6;overflow=hidden;whiteSpace=wrap;html=1;" vertex="1" parent="SaL2PeA7gjWB8aAEkNeD-10">
          <mxGeometry x="30" width="130" height="30" as="geometry">
            <mxRectangle width="130" height="30" as="alternateBounds" />
          </mxGeometry>
        </mxCell>
        <mxCell id="6WGu9mvO_UtEClpmtIr3-1" style="shape=tableRow;horizontal=0;startSize=0;swimlaneHead=0;swimlaneBody=0;fillColor=none;collapsible=0;dropTarget=0;points=[[0,0.5],[1,0.5]];portConstraint=eastwest;top=0;left=0;right=0;bottom=0;" vertex="1" parent="SaL2PeA7gjWB8aAEkNeD-6">
          <mxGeometry y="120" width="160" height="30" as="geometry" />
        </mxCell>
        <mxCell id="6WGu9mvO_UtEClpmtIr3-2" style="shape=partialRectangle;connectable=0;fillColor=none;top=0;left=0;bottom=0;right=0;editable=1;overflow=hidden;whiteSpace=wrap;html=1;" vertex="1" parent="6WGu9mvO_UtEClpmtIr3-1">
          <mxGeometry width="30" height="30" as="geometry">
            <mxRectangle width="30" height="30" as="alternateBounds" />
          </mxGeometry>
        </mxCell>
        <mxCell id="6WGu9mvO_UtEClpmtIr3-3" value="senderId" style="shape=partialRectangle;connectable=0;fillColor=none;top=0;left=0;bottom=0;right=0;align=left;spacingLeft=6;overflow=hidden;whiteSpace=wrap;html=1;" vertex="1" parent="6WGu9mvO_UtEClpmtIr3-1">
          <mxGeometry x="30" width="130" height="30" as="geometry">
            <mxRectangle width="130" height="30" as="alternateBounds" />
          </mxGeometry>
        </mxCell>
        <mxCell id="131c54Ve4dcCw7EQzoG_-34" value="User" style="shape=table;startSize=30;container=1;collapsible=1;childLayout=tableLayout;fixedRows=1;rowLines=0;fontStyle=1;align=center;resizeLast=1;html=1;" vertex="1" parent="1">
          <mxGeometry x="-460" y="315" width="160" height="90" as="geometry" />
        </mxCell>
        <mxCell id="131c54Ve4dcCw7EQzoG_-35" value="" style="shape=tableRow;horizontal=0;startSize=0;swimlaneHead=0;swimlaneBody=0;fillColor=none;collapsible=0;dropTarget=0;points=[[0,0.5],[1,0.5]];portConstraint=eastwest;top=0;left=0;right=0;bottom=1;" vertex="1" parent="131c54Ve4dcCw7EQzoG_-34">
          <mxGeometry y="30" width="160" height="30" as="geometry" />
        </mxCell>
        <mxCell id="131c54Ve4dcCw7EQzoG_-36" value="PK" style="shape=partialRectangle;connectable=0;fillColor=none;top=0;left=0;bottom=0;right=0;fontStyle=1;overflow=hidden;whiteSpace=wrap;html=1;" vertex="1" parent="131c54Ve4dcCw7EQzoG_-35">
          <mxGeometry width="30" height="30" as="geometry">
            <mxRectangle width="30" height="30" as="alternateBounds" />
          </mxGeometry>
        </mxCell>
        <mxCell id="131c54Ve4dcCw7EQzoG_-37" value="id" style="shape=partialRectangle;connectable=0;fillColor=none;top=0;left=0;bottom=0;right=0;align=left;spacingLeft=6;fontStyle=5;overflow=hidden;whiteSpace=wrap;html=1;" vertex="1" parent="131c54Ve4dcCw7EQzoG_-35">
          <mxGeometry x="30" width="130" height="30" as="geometry">
            <mxRectangle width="130" height="30" as="alternateBounds" />
          </mxGeometry>
        </mxCell>
        <mxCell id="131c54Ve4dcCw7EQzoG_-38" value="" style="shape=tableRow;horizontal=0;startSize=0;swimlaneHead=0;swimlaneBody=0;fillColor=none;collapsible=0;dropTarget=0;points=[[0,0.5],[1,0.5]];portConstraint=eastwest;top=0;left=0;right=0;bottom=0;" vertex="1" parent="131c54Ve4dcCw7EQzoG_-34">
          <mxGeometry y="60" width="160" height="30" as="geometry" />
        </mxCell>
        <mxCell id="131c54Ve4dcCw7EQzoG_-39" value="" style="shape=partialRectangle;connectable=0;fillColor=none;top=0;left=0;bottom=0;right=0;editable=1;overflow=hidden;whiteSpace=wrap;html=1;" vertex="1" parent="131c54Ve4dcCw7EQzoG_-38">
          <mxGeometry width="30" height="30" as="geometry">
            <mxRectangle width="30" height="30" as="alternateBounds" />
          </mxGeometry>
        </mxCell>
        <mxCell id="131c54Ve4dcCw7EQzoG_-40" value="username" style="shape=partialRectangle;connectable=0;fillColor=none;top=0;left=0;bottom=0;right=0;align=left;spacingLeft=6;overflow=hidden;whiteSpace=wrap;html=1;" vertex="1" parent="131c54Ve4dcCw7EQzoG_-38">
          <mxGeometry x="30" width="130" height="30" as="geometry">
            <mxRectangle width="130" height="30" as="alternateBounds" />
          </mxGeometry>
        </mxCell>
        <mxCell id="R8Wpr6JiOGL7sGA5M8O1-1" value="has" style="shape=rhombus;perimeter=rhombusPerimeter;whiteSpace=wrap;html=1;align=center;" vertex="1" parent="1">
          <mxGeometry x="190" y="110" width="120" height="60" as="geometry" />
        </mxCell>
        <mxCell id="ckaE4S-ncni6q_CTNCzI-7" value="Chat" style="shape=table;startSize=30;container=1;collapsible=1;childLayout=tableLayout;fixedRows=1;rowLines=0;fontStyle=1;align=center;resizeLast=1;html=1;whiteSpace=wrap;" vertex="1" parent="1">
          <mxGeometry x="54" y="315" width="180" height="90" as="geometry" />
        </mxCell>
        <mxCell id="ckaE4S-ncni6q_CTNCzI-8" value="" style="shape=tableRow;horizontal=0;startSize=0;swimlaneHead=0;swimlaneBody=0;fillColor=none;collapsible=0;dropTarget=0;points=[[0,0.5],[1,0.5]];portConstraint=eastwest;top=0;left=0;right=0;bottom=0;html=1;" vertex="1" parent="ckaE4S-ncni6q_CTNCzI-7">
          <mxGeometry y="30" width="180" height="30" as="geometry" />
        </mxCell>
        <mxCell id="ckaE4S-ncni6q_CTNCzI-9" value="UNIQUE" style="shape=partialRectangle;connectable=0;fillColor=none;top=0;left=0;bottom=0;right=0;fontStyle=1;overflow=hidden;html=1;whiteSpace=wrap;rowspan=2;colspan=1;" vertex="1" parent="ckaE4S-ncni6q_CTNCzI-8">
          <mxGeometry width="60" height="60" as="geometry">
            <mxRectangle width="60" height="30" as="alternateBounds" />
          </mxGeometry>
        </mxCell>
        <mxCell id="ckaE4S-ncni6q_CTNCzI-10" value="userChatId" style="shape=partialRectangle;connectable=0;fillColor=none;top=0;left=0;bottom=0;right=0;align=left;spacingLeft=6;fontStyle=5;overflow=hidden;html=1;whiteSpace=wrap;" vertex="1" parent="ckaE4S-ncni6q_CTNCzI-8">
          <mxGeometry x="60" width="120" height="30" as="geometry">
            <mxRectangle width="120" height="30" as="alternateBounds" />
          </mxGeometry>
        </mxCell>
        <mxCell id="ckaE4S-ncni6q_CTNCzI-11" value="" style="shape=tableRow;horizontal=0;startSize=0;swimlaneHead=0;swimlaneBody=0;fillColor=none;collapsible=0;dropTarget=0;points=[[0,0.5],[1,0.5]];portConstraint=eastwest;top=0;left=0;right=0;bottom=1;html=1;" vertex="1" parent="ckaE4S-ncni6q_CTNCzI-7">
          <mxGeometry y="60" width="180" height="30" as="geometry" />
        </mxCell>
        <mxCell id="ckaE4S-ncni6q_CTNCzI-12" value="PK,FK2" style="shape=partialRectangle;connectable=0;fillColor=none;top=0;left=0;bottom=0;right=0;fontStyle=1;overflow=hidden;html=1;whiteSpace=wrap;" visible="0" vertex="1" parent="ckaE4S-ncni6q_CTNCzI-11">
          <mxGeometry width="60" height="30" as="geometry">
            <mxRectangle width="60" height="30" as="alternateBounds" />
          </mxGeometry>
        </mxCell>
        <mxCell id="ckaE4S-ncni6q_CTNCzI-13" value="messageId" style="shape=partialRectangle;connectable=0;fillColor=none;top=0;left=0;bottom=0;right=0;align=left;spacingLeft=6;fontStyle=5;overflow=hidden;html=1;whiteSpace=wrap;" vertex="1" parent="ckaE4S-ncni6q_CTNCzI-11">
          <mxGeometry x="60" width="120" height="30" as="geometry">
            <mxRectangle width="120" height="30" as="alternateBounds" />
          </mxGeometry>
        </mxCell>
        <mxCell id="R8Wpr6JiOGL7sGA5M8O1-5" value="has" style="shape=rhombus;perimeter=rhombusPerimeter;whiteSpace=wrap;html=1;align=center;" vertex="1" parent="1">
          <mxGeometry x="520" y="110" width="120" height="60" as="geometry" />
        </mxCell>
        <mxCell id="ltrMDjvmy_uNCrw7yKKF-1" style="edgeStyle=orthogonalEdgeStyle;rounded=0;orthogonalLoop=1;jettySize=auto;html=1;entryX=0;entryY=0.5;entryDx=0;entryDy=0;" edge="1" parent="1" source="131c54Ve4dcCw7EQzoG_-38">
          <mxGeometry relative="1" as="geometry" />
        </mxCell>
        <mxCell id="ltrMDjvmy_uNCrw7yKKF-2" style="edgeStyle=orthogonalEdgeStyle;rounded=0;orthogonalLoop=1;jettySize=auto;html=1;entryX=0;entryY=0.5;entryDx=0;entryDy=0;exitX=1;exitY=0.5;exitDx=0;exitDy=0;" edge="1" parent="1" source="ltrMDjvmy_uNCrw7yKKF-8" target="ckaE4S-ncni6q_CTNCzI-8">
          <mxGeometry relative="1" as="geometry">
            <mxPoint y="400" as="sourcePoint" />
            <Array as="points">
              <mxPoint x="10" y="361" />
            </Array>
          </mxGeometry>
        </mxCell>
        <mxCell id="ltrMDjvmy_uNCrw7yKKF-6" style="edgeStyle=orthogonalEdgeStyle;rounded=0;orthogonalLoop=1;jettySize=auto;html=1;exitX=1;exitY=0.5;exitDx=0;exitDy=0;entryX=0;entryY=0.5;entryDx=0;entryDy=0;" edge="1" parent="1" source="131c54Ve4dcCw7EQzoG_-35" target="ltrMDjvmy_uNCrw7yKKF-11">
          <mxGeometry relative="1" as="geometry">
            <mxPoint x="-220.00000000000045" y="390.0588235294117" as="targetPoint" />
            <Array as="points">
              <mxPoint x="-260" y="360" />
              <mxPoint x="-260" y="390" />
            </Array>
          </mxGeometry>
        </mxCell>
        <mxCell id="ltrMDjvmy_uNCrw7yKKF-7" value="UserChat" style="shape=table;startSize=30;container=1;collapsible=1;childLayout=tableLayout;fixedRows=1;rowLines=0;fontStyle=1;align=center;resizeLast=1;html=1;whiteSpace=wrap;" vertex="1" parent="1">
          <mxGeometry x="-210" y="315" width="180" height="90" as="geometry" />
        </mxCell>
        <mxCell id="ltrMDjvmy_uNCrw7yKKF-8" value="" style="shape=tableRow;horizontal=0;startSize=0;swimlaneHead=0;swimlaneBody=0;fillColor=none;collapsible=0;dropTarget=0;points=[[0,0.5],[1,0.5]];portConstraint=eastwest;top=0;left=0;right=0;bottom=0;html=1;" vertex="1" parent="ltrMDjvmy_uNCrw7yKKF-7">
          <mxGeometry y="30" width="180" height="30" as="geometry" />
        </mxCell>
        <mxCell id="ltrMDjvmy_uNCrw7yKKF-9" value="&lt;u&gt;UNIQUE&lt;/u&gt;" style="shape=partialRectangle;connectable=0;fillColor=none;top=0;left=0;bottom=0;right=0;fontStyle=1;overflow=hidden;html=1;whiteSpace=wrap;rowspan=2;colspan=1;" vertex="1" parent="ltrMDjvmy_uNCrw7yKKF-8">
          <mxGeometry width="60" height="60" as="geometry">
            <mxRectangle width="60" height="30" as="alternateBounds" />
          </mxGeometry>
        </mxCell>
        <mxCell id="ltrMDjvmy_uNCrw7yKKF-10" value="chatId" style="shape=partialRectangle;connectable=0;fillColor=none;top=0;left=0;bottom=0;right=0;align=left;spacingLeft=6;fontStyle=5;overflow=hidden;html=1;whiteSpace=wrap;" vertex="1" parent="ltrMDjvmy_uNCrw7yKKF-8">
          <mxGeometry x="60" width="120" height="30" as="geometry">
            <mxRectangle width="120" height="30" as="alternateBounds" />
          </mxGeometry>
        </mxCell>
        <mxCell id="ltrMDjvmy_uNCrw7yKKF-11" value="" style="shape=tableRow;horizontal=0;startSize=0;swimlaneHead=0;swimlaneBody=0;fillColor=none;collapsible=0;dropTarget=0;points=[[0,0.5],[1,0.5]];portConstraint=eastwest;top=0;left=0;right=0;bottom=1;html=1;" vertex="1" parent="ltrMDjvmy_uNCrw7yKKF-7">
          <mxGeometry y="60" width="180" height="30" as="geometry" />
        </mxCell>
        <mxCell id="ltrMDjvmy_uNCrw7yKKF-12" value="PK,FK2" style="shape=partialRectangle;connectable=0;fillColor=none;top=0;left=0;bottom=0;right=0;fontStyle=1;overflow=hidden;html=1;whiteSpace=wrap;" visible="0" vertex="1" parent="ltrMDjvmy_uNCrw7yKKF-11">
          <mxGeometry width="60" height="30" as="geometry">
            <mxRectangle width="60" height="30" as="alternateBounds" />
          </mxGeometry>
        </mxCell>
        <mxCell id="ltrMDjvmy_uNCrw7yKKF-13" value="userId" style="shape=partialRectangle;connectable=0;fillColor=none;top=0;left=0;bottom=0;right=0;align=left;spacingLeft=6;fontStyle=5;overflow=hidden;html=1;whiteSpace=wrap;" vertex="1" parent="ltrMDjvmy_uNCrw7yKKF-11">
          <mxGeometry x="60" width="120" height="30" as="geometry">
            <mxRectangle width="120" height="30" as="alternateBounds" />
          </mxGeometry>
        </mxCell>
        <mxCell id="ltrMDjvmy_uNCrw7yKKF-20" style="edgeStyle=orthogonalEdgeStyle;rounded=0;orthogonalLoop=1;jettySize=auto;html=1;entryX=0;entryY=0.5;entryDx=0;entryDy=0;" edge="1" parent="1" source="ckaE4S-ncni6q_CTNCzI-11" target="SaL2PeA7gjWB8aAEkNeD-7">
          <mxGeometry relative="1" as="geometry">
            <Array as="points">
              <mxPoint x="300" y="390" />
              <mxPoint x="300" y="365" />
            </Array>
          </mxGeometry>
        </mxCell>
        <mxCell id="ltrMDjvmy_uNCrw7yKKF-36" value="MessageStatus" style="shape=table;startSize=30;container=1;collapsible=1;childLayout=tableLayout;fixedRows=1;rowLines=0;fontStyle=1;align=center;resizeLast=1;html=1;" vertex="1" parent="1">
          <mxGeometry x="-90" y="465" width="160" height="120" as="geometry" />
        </mxCell>
        <mxCell id="ltrMDjvmy_uNCrw7yKKF-37" value="" style="shape=tableRow;horizontal=0;startSize=0;swimlaneHead=0;swimlaneBody=0;fillColor=none;collapsible=0;dropTarget=0;points=[[0,0.5],[1,0.5]];portConstraint=eastwest;top=0;left=0;right=0;bottom=1;" vertex="1" parent="ltrMDjvmy_uNCrw7yKKF-36">
          <mxGeometry y="30" width="160" height="30" as="geometry" />
        </mxCell>
        <mxCell id="ltrMDjvmy_uNCrw7yKKF-38" value="PK" style="shape=partialRectangle;connectable=0;fillColor=none;top=0;left=0;bottom=0;right=0;fontStyle=1;overflow=hidden;whiteSpace=wrap;html=1;" vertex="1" parent="ltrMDjvmy_uNCrw7yKKF-37">
          <mxGeometry width="30" height="30" as="geometry">
            <mxRectangle width="30" height="30" as="alternateBounds" />
          </mxGeometry>
        </mxCell>
        <mxCell id="ltrMDjvmy_uNCrw7yKKF-39" value="id" style="shape=partialRectangle;connectable=0;fillColor=none;top=0;left=0;bottom=0;right=0;align=left;spacingLeft=6;fontStyle=5;overflow=hidden;whiteSpace=wrap;html=1;" vertex="1" parent="ltrMDjvmy_uNCrw7yKKF-37">
          <mxGeometry x="30" width="130" height="30" as="geometry">
            <mxRectangle width="130" height="30" as="alternateBounds" />
          </mxGeometry>
        </mxCell>
        <mxCell id="ltrMDjvmy_uNCrw7yKKF-40" value="" style="shape=tableRow;horizontal=0;startSize=0;swimlaneHead=0;swimlaneBody=0;fillColor=none;collapsible=0;dropTarget=0;points=[[0,0.5],[1,0.5]];portConstraint=eastwest;top=0;left=0;right=0;bottom=0;" vertex="1" parent="ltrMDjvmy_uNCrw7yKKF-36">
          <mxGeometry y="60" width="160" height="30" as="geometry" />
        </mxCell>
        <mxCell id="ltrMDjvmy_uNCrw7yKKF-41" value="" style="shape=partialRectangle;connectable=0;fillColor=none;top=0;left=0;bottom=0;right=0;editable=1;overflow=hidden;whiteSpace=wrap;html=1;" vertex="1" parent="ltrMDjvmy_uNCrw7yKKF-40">
          <mxGeometry width="30" height="30" as="geometry">
            <mxRectangle width="30" height="30" as="alternateBounds" />
          </mxGeometry>
        </mxCell>
        <mxCell id="ltrMDjvmy_uNCrw7yKKF-42" value="&lt;div&gt;messageId&lt;/div&gt;" style="shape=partialRectangle;connectable=0;fillColor=none;top=0;left=0;bottom=0;right=0;align=left;spacingLeft=6;overflow=hidden;whiteSpace=wrap;html=1;" vertex="1" parent="ltrMDjvmy_uNCrw7yKKF-40">
          <mxGeometry x="30" width="130" height="30" as="geometry">
            <mxRectangle width="130" height="30" as="alternateBounds" />
          </mxGeometry>
        </mxCell>
        <mxCell id="ltrMDjvmy_uNCrw7yKKF-43" value="" style="shape=tableRow;horizontal=0;startSize=0;swimlaneHead=0;swimlaneBody=0;fillColor=none;collapsible=0;dropTarget=0;points=[[0,0.5],[1,0.5]];portConstraint=eastwest;top=0;left=0;right=0;bottom=0;" vertex="1" parent="ltrMDjvmy_uNCrw7yKKF-36">
          <mxGeometry y="90" width="160" height="30" as="geometry" />
        </mxCell>
        <mxCell id="ltrMDjvmy_uNCrw7yKKF-44" value="" style="shape=partialRectangle;connectable=0;fillColor=none;top=0;left=0;bottom=0;right=0;editable=1;overflow=hidden;whiteSpace=wrap;html=1;" vertex="1" parent="ltrMDjvmy_uNCrw7yKKF-43">
          <mxGeometry width="30" height="30" as="geometry">
            <mxRectangle width="30" height="30" as="alternateBounds" />
          </mxGeometry>
        </mxCell>
        <mxCell id="ltrMDjvmy_uNCrw7yKKF-45" value="&lt;div&gt;&lt;span style=&quot;background-color: initial;&quot;&gt;userId&lt;/span&gt;&lt;br&gt;&lt;/div&gt;" style="shape=partialRectangle;connectable=0;fillColor=none;top=0;left=0;bottom=0;right=0;align=left;spacingLeft=6;overflow=hidden;whiteSpace=wrap;html=1;" vertex="1" parent="ltrMDjvmy_uNCrw7yKKF-43">
          <mxGeometry x="30" width="130" height="30" as="geometry">
            <mxRectangle width="130" height="30" as="alternateBounds" />
          </mxGeometry>
        </mxCell>
        <mxCell id="ltrMDjvmy_uNCrw7yKKF-46" style="edgeStyle=orthogonalEdgeStyle;rounded=0;orthogonalLoop=1;jettySize=auto;html=1;exitX=0;exitY=0.5;exitDx=0;exitDy=0;entryX=0;entryY=0.5;entryDx=0;entryDy=0;" edge="1" parent="1" source="131c54Ve4dcCw7EQzoG_-35" target="ltrMDjvmy_uNCrw7yKKF-43">
          <mxGeometry relative="1" as="geometry">
            <Array as="points">
              <mxPoint x="-480" y="360" />
              <mxPoint x="-480" y="570" />
            </Array>
          </mxGeometry>
        </mxCell>
        <mxCell id="ltrMDjvmy_uNCrw7yKKF-47" style="edgeStyle=orthogonalEdgeStyle;rounded=0;orthogonalLoop=1;jettySize=auto;html=1;entryX=1;entryY=0.5;entryDx=0;entryDy=0;exitX=1;exitY=0.5;exitDx=0;exitDy=0;" edge="1" parent="1" source="SaL2PeA7gjWB8aAEkNeD-7" target="ltrMDjvmy_uNCrw7yKKF-40">
          <mxGeometry relative="1" as="geometry">
            <mxPoint x="180" y="600" as="targetPoint" />
            <Array as="points">
              <mxPoint x="550" y="355" />
              <mxPoint x="550" y="540" />
            </Array>
          </mxGeometry>
        </mxCell>
        <mxCell id="NouGi9jaWct2LWnMyCkP-1" style="edgeStyle=orthogonalEdgeStyle;rounded=0;orthogonalLoop=1;jettySize=auto;html=1;entryX=0.008;entryY=0.671;entryDx=0;entryDy=0;entryPerimeter=0;" edge="1" parent="1" source="131c54Ve4dcCw7EQzoG_-35" target="ltrMDjvmy_uNCrw7yKKF-11">
          <mxGeometry relative="1" as="geometry" />
        </mxCell>
        <mxCell id="NouGi9jaWct2LWnMyCkP-3" style="edgeStyle=orthogonalEdgeStyle;rounded=0;orthogonalLoop=1;jettySize=auto;html=1;entryX=1;entryY=0.5;entryDx=0;entryDy=0;" edge="1" parent="1" source="ckaE4S-ncni6q_CTNCzI-8" target="ltrMDjvmy_uNCrw7yKKF-8">
          <mxGeometry relative="1" as="geometry" />
        </mxCell>
      </root>
    </mxGraphModel>
  </diagram>
  <diagram id="-g6y3Fd9VnQGJ2Cg2GPm" name="Use Cases">
    <mxGraphModel grid="1" page="1" gridSize="10" guides="1" tooltips="1" connect="1" arrows="1" fold="1" pageScale="1" pageWidth="850" pageHeight="1100" math="0" shadow="0">
      <root>
        <mxCell id="0" />
        <mxCell id="1" parent="0" />
        <mxCell id="Hv-vxpvqVmvVvQMcLOIM-1" style="edgeStyle=orthogonalEdgeStyle;rounded=0;orthogonalLoop=1;jettySize=auto;html=1;exitX=1;exitY=0.3333333333333333;exitDx=0;exitDy=0;exitPerimeter=0;entryX=0;entryY=0.5;entryDx=0;entryDy=0;curved=1;" edge="1" parent="1" source="Hv-vxpvqVmvVvQMcLOIM-2" target="Hv-vxpvqVmvVvQMcLOIM-6">
          <mxGeometry relative="1" as="geometry" />
        </mxCell>
        <mxCell id="Hv-vxpvqVmvVvQMcLOIM-2" value="Yan" style="shape=umlActor;verticalLabelPosition=bottom;verticalAlign=top;html=1;outlineConnect=0;" vertex="1" parent="1">
          <mxGeometry x="-260" y="10" width="30" height="60" as="geometry" />
        </mxCell>
        <mxCell id="Hv-vxpvqVmvVvQMcLOIM-3" style="edgeStyle=orthogonalEdgeStyle;rounded=0;orthogonalLoop=1;jettySize=auto;html=1;entryX=1;entryY=0.5;entryDx=0;entryDy=0;curved=1;" edge="1" parent="1" source="Hv-vxpvqVmvVvQMcLOIM-4" target="Hv-vxpvqVmvVvQMcLOIM-6">
          <mxGeometry relative="1" as="geometry">
            <mxPoint x="-10" y="10" as="sourcePoint" />
            <Array as="points">
              <mxPoint x="-20" y="30" />
              <mxPoint x="-20" y="40" />
            </Array>
          </mxGeometry>
        </mxCell>
        <mxCell id="Hv-vxpvqVmvVvQMcLOIM-4" value="SÃ©rgio Fred" style="shape=umlActor;verticalLabelPosition=bottom;verticalAlign=top;html=1;outlineConnect=0;" vertex="1" parent="1">
          <mxGeometry x="10" y="10" width="30" height="60" as="geometry" />
        </mxCell>
        <mxCell id="Hv-vxpvqVmvVvQMcLOIM-5" value="&amp;lt;&amp;lt; extend &amp;gt;&amp;gt;" style="rounded=0;orthogonalLoop=1;jettySize=auto;html=1;exitX=1;exitY=0;exitDx=0;exitDy=0;entryX=0.457;entryY=0.967;entryDx=0;entryDy=0;entryPerimeter=0;dashed=1;startArrow=classic;startFill=1;endArrow=none;endFill=0;" edge="1" parent="1" source="Hv-vxpvqVmvVvQMcLOIM-6" target="Hv-vxpvqVmvVvQMcLOIM-7">
          <mxGeometry x="0.0227" y="1" relative="1" as="geometry">
            <mxPoint as="offset" />
          </mxGeometry>
        </mxCell>
        <mxCell id="Hv-vxpvqVmvVvQMcLOIM-6" value="Envia mensagem" style="ellipse;whiteSpace=wrap;html=1;" vertex="1" parent="1">
          <mxGeometry x="-170" y="15" width="120" height="50" as="geometry" />
        </mxCell>
        <mxCell id="Hv-vxpvqVmvVvQMcLOIM-7" value="Visualiza" style="ellipse;whiteSpace=wrap;html=1;" vertex="1" parent="1">
          <mxGeometry y="-120" width="120" height="50" as="geometry" />
        </mxCell>
        <mxCell id="Hv-vxpvqVmvVvQMcLOIM-8" value="&amp;lt;&amp;lt; extend &amp;gt;&amp;gt;" style="edgeStyle=orthogonalEdgeStyle;rounded=0;orthogonalLoop=1;jettySize=auto;html=1;entryX=0.5;entryY=0;entryDx=0;entryDy=0;dashed=1;" edge="1" parent="1" source="Hv-vxpvqVmvVvQMcLOIM-9" target="Hv-vxpvqVmvVvQMcLOIM-6">
          <mxGeometry relative="1" as="geometry">
            <Array as="points">
              <mxPoint x="-110" y="-30" />
              <mxPoint x="-110" y="-30" />
            </Array>
          </mxGeometry>
        </mxCell>
        <mxCell id="Hv-vxpvqVmvVvQMcLOIM-9" value="Retorna Mensagem" style="ellipse;whiteSpace=wrap;html=1;" vertex="1" parent="1">
          <mxGeometry x="-170" y="-140" width="120" height="50" as="geometry" />
        </mxCell>
        <mxCell id="Hv-vxpvqVmvVvQMcLOIM-10" style="edgeStyle=orthogonalEdgeStyle;rounded=0;orthogonalLoop=1;jettySize=auto;html=1;exitX=1;exitY=0.3333333333333333;exitDx=0;exitDy=0;exitPerimeter=0;entryX=0;entryY=0.5;entryDx=0;entryDy=0;curved=1;" edge="1" parent="1" source="Hv-vxpvqVmvVvQMcLOIM-11" target="Hv-vxpvqVmvVvQMcLOIM-13">
          <mxGeometry relative="1" as="geometry" />
        </mxCell>
        <mxCell id="Hv-vxpvqVmvVvQMcLOIM-11" value="Yan" style="shape=umlActor;verticalLabelPosition=bottom;verticalAlign=top;html=1;outlineConnect=0;" vertex="1" parent="1">
          <mxGeometry x="-260" y="280" width="30" height="60" as="geometry" />
        </mxCell>
        <mxCell id="Hv-vxpvqVmvVvQMcLOIM-12" value="&amp;lt;&amp;lt; include &amp;gt;&amp;gt;" style="rounded=0;orthogonalLoop=1;jettySize=auto;html=1;exitX=1;exitY=0;exitDx=0;exitDy=0;entryX=0.457;entryY=0.967;entryDx=0;entryDy=0;entryPerimeter=0;dashed=1;startArrow=classic;startFill=1;endArrow=none;endFill=0;" edge="1" parent="1" source="Hv-vxpvqVmvVvQMcLOIM-13" target="Hv-vxpvqVmvVvQMcLOIM-14">
          <mxGeometry x="0.0048" y="6" relative="1" as="geometry">
            <mxPoint x="-1" as="offset" />
          </mxGeometry>
        </mxCell>
        <mxCell id="Hv-vxpvqVmvVvQMcLOIM-13" value="Apagar Mensagem" style="ellipse;whiteSpace=wrap;html=1;" vertex="1" parent="1">
          <mxGeometry x="-170" y="275" width="120" height="50" as="geometry" />
        </mxCell>
        <mxCell id="Hv-vxpvqVmvVvQMcLOIM-14" value="Notifica peer" style="ellipse;whiteSpace=wrap;html=1;" vertex="1" parent="1">
          <mxGeometry y="140" width="120" height="50" as="geometry" />
        </mxCell>
        <mxCell id="Hv-vxpvqVmvVvQMcLOIM-15" value="App Peer" style="shape=umlActor;verticalLabelPosition=bottom;verticalAlign=top;html=1;outlineConnect=0;" vertex="1" parent="1">
          <mxGeometry x="80" y="250" width="30" height="60" as="geometry" />
        </mxCell>
        <mxCell id="Hv-vxpvqVmvVvQMcLOIM-16" value="" style="edgeStyle=orthogonalEdgeStyle;rounded=0;orthogonalLoop=1;jettySize=auto;html=1;entryX=0;entryY=0.3333333333333333;entryDx=0;entryDy=0;entryPerimeter=0;curved=1;endArrow=none;endFill=0;startArrow=classic;startFill=1;" edge="1" parent="1" source="Hv-vxpvqVmvVvQMcLOIM-13" target="Hv-vxpvqVmvVvQMcLOIM-15">
          <mxGeometry relative="1" as="geometry">
            <Array as="points">
              <mxPoint x="20" y="300" />
              <mxPoint x="20" y="270" />
            </Array>
          </mxGeometry>
        </mxCell>
        <mxCell id="Hv-vxpvqVmvVvQMcLOIM-18" value="SendMessage" style="swimlane;whiteSpace=wrap;html=1;" vertex="1" parent="1">
          <mxGeometry x="-600" y="610" width="460" height="420" as="geometry" />
        </mxCell>
        <mxCell id="WOWgfYb7VURcwfjRC9Sh-3" value="Send Message" style="ellipse;whiteSpace=wrap;html=1;" vertex="1" parent="Hv-vxpvqVmvVvQMcLOIM-18">
          <mxGeometry x="40" y="200" width="120" height="50" as="geometry" />
        </mxCell>
        <mxCell id="WOWgfYb7VURcwfjRC9Sh-8" value="View Message" style="ellipse;whiteSpace=wrap;html=1;" vertex="1" parent="Hv-vxpvqVmvVvQMcLOIM-18">
          <mxGeometry x="310" y="200" width="120" height="50" as="geometry" />
        </mxCell>
        <mxCell id="WOWgfYb7VURcwfjRC9Sh-14" value="&amp;lt;&amp;lt; extend &amp;gt;&amp;gt;" style="rounded=0;orthogonalLoop=1;jettySize=auto;html=1;exitX=1;exitY=0.5;exitDx=0;exitDy=0;entryX=0;entryY=0.5;entryDx=0;entryDy=0;dashed=1;startArrow=classic;startFill=1;endArrow=none;endFill=0;" edge="1" parent="Hv-vxpvqVmvVvQMcLOIM-18" source="WOWgfYb7VURcwfjRC9Sh-3" target="WOWgfYb7VURcwfjRC9Sh-8">
          <mxGeometry x="0.0227" y="1" relative="1" as="geometry">
            <mxPoint as="offset" />
            <mxPoint x="104" y="200" as="sourcePoint" />
            <mxPoint x="227" y="106" as="targetPoint" />
          </mxGeometry>
        </mxCell>
        <mxCell id="WOWgfYb7VURcwfjRC9Sh-15" value="Connect to Peer" style="ellipse;whiteSpace=wrap;html=1;" vertex="1" parent="Hv-vxpvqVmvVvQMcLOIM-18">
          <mxGeometry x="40" y="50" width="120" height="50" as="geometry" />
        </mxCell>
        <mxCell id="WOWgfYb7VURcwfjRC9Sh-16" value="&amp;lt;&amp;lt; Include &amp;gt;&amp;gt;" style="rounded=0;orthogonalLoop=1;jettySize=auto;html=1;exitX=0.5;exitY=1;exitDx=0;exitDy=0;dashed=1;startArrow=classic;startFill=1;endArrow=none;endFill=0;entryX=0.5;entryY=0;entryDx=0;entryDy=0;" edge="1" parent="Hv-vxpvqVmvVvQMcLOIM-18" source="WOWgfYb7VURcwfjRC9Sh-15" target="WOWgfYb7VURcwfjRC9Sh-3">
          <mxGeometry x="0.0227" y="1" relative="1" as="geometry">
            <mxPoint as="offset" />
            <mxPoint x="110" y="210" as="sourcePoint" />
            <mxPoint x="130" y="190" as="targetPoint" />
          </mxGeometry>
        </mxCell>
        <mxCell id="WOWgfYb7VURcwfjRC9Sh-23" value="Reply to Message" style="ellipse;whiteSpace=wrap;html=1;" vertex="1" parent="Hv-vxpvqVmvVvQMcLOIM-18">
          <mxGeometry x="40" y="340" width="120" height="50" as="geometry" />
        </mxCell>
        <mxCell id="WOWgfYb7VURcwfjRC9Sh-24" value="&amp;lt;&amp;lt; extend &amp;gt;&amp;gt;" style="rounded=0;orthogonalLoop=1;jettySize=auto;html=1;exitX=0.5;exitY=1;exitDx=0;exitDy=0;entryX=0.5;entryY=0;entryDx=0;entryDy=0;dashed=1;startArrow=classic;startFill=1;endArrow=none;endFill=0;" edge="1" parent="Hv-vxpvqVmvVvQMcLOIM-18" source="WOWgfYb7VURcwfjRC9Sh-3" target="WOWgfYb7VURcwfjRC9Sh-23">
          <mxGeometry x="0.0227" y="1" relative="1" as="geometry">
            <mxPoint as="offset" />
            <mxPoint x="60" y="290" as="sourcePoint" />
            <mxPoint x="210" y="290" as="targetPoint" />
          </mxGeometry>
        </mxCell>
        <mxCell id="Hv-vxpvqVmvVvQMcLOIM-19" value="ReceiveMessage" style="swimlane;whiteSpace=wrap;html=1;" vertex="1" parent="1">
          <mxGeometry x="-60" y="610" width="460" height="420" as="geometry" />
        </mxCell>
        <mxCell id="WOWgfYb7VURcwfjRC9Sh-17" value="Receive Message" style="ellipse;whiteSpace=wrap;html=1;" vertex="1" parent="Hv-vxpvqVmvVvQMcLOIM-19">
          <mxGeometry x="50" y="200" width="120" height="50" as="geometry" />
        </mxCell>
        <mxCell id="WOWgfYb7VURcwfjRC9Sh-18" value="View Message" style="ellipse;whiteSpace=wrap;html=1;" vertex="1" parent="Hv-vxpvqVmvVvQMcLOIM-19">
          <mxGeometry x="320" y="200" width="120" height="50" as="geometry" />
        </mxCell>
        <mxCell id="WOWgfYb7VURcwfjRC9Sh-19" value="Connect to Peer" style="ellipse;whiteSpace=wrap;html=1;" vertex="1" parent="Hv-vxpvqVmvVvQMcLOIM-19">
          <mxGeometry x="50" y="50" width="120" height="50" as="geometry" />
        </mxCell>
        <mxCell id="WOWgfYb7VURcwfjRC9Sh-20" value="&amp;lt;&amp;lt; Include &amp;gt;&amp;gt;" style="rounded=0;orthogonalLoop=1;jettySize=auto;html=1;exitX=0.5;exitY=1;exitDx=0;exitDy=0;dashed=1;startArrow=classic;startFill=1;endArrow=none;endFill=0;entryX=0.5;entryY=0;entryDx=0;entryDy=0;" edge="1" parent="Hv-vxpvqVmvVvQMcLOIM-19" source="WOWgfYb7VURcwfjRC9Sh-19" target="WOWgfYb7VURcwfjRC9Sh-17">
          <mxGeometry x="0.0227" y="1" relative="1" as="geometry">
            <mxPoint as="offset" />
            <mxPoint x="100" y="80" as="sourcePoint" />
            <mxPoint x="100" y="180" as="targetPoint" />
          </mxGeometry>
        </mxCell>
        <mxCell id="WOWgfYb7VURcwfjRC9Sh-21" value="&amp;lt;&amp;lt; extend &amp;gt;&amp;gt;" style="rounded=0;orthogonalLoop=1;jettySize=auto;html=1;exitX=1;exitY=0.5;exitDx=0;exitDy=0;dashed=1;startArrow=classic;startFill=1;endArrow=none;endFill=0;entryX=0;entryY=0.5;entryDx=0;entryDy=0;" edge="1" parent="Hv-vxpvqVmvVvQMcLOIM-19" source="WOWgfYb7VURcwfjRC9Sh-17" target="WOWgfYb7VURcwfjRC9Sh-18">
          <mxGeometry x="0.0227" y="1" relative="1" as="geometry">
            <mxPoint as="offset" />
            <mxPoint x="190" y="224.5" as="sourcePoint" />
            <mxPoint x="320" y="225" as="targetPoint" />
          </mxGeometry>
        </mxCell>
        <mxCell id="WOWgfYb7VURcwfjRC9Sh-5" style="edgeStyle=orthogonalEdgeStyle;rounded=0;orthogonalLoop=1;jettySize=auto;html=1;entryX=0;entryY=0.5;entryDx=0;entryDy=0;" edge="1" parent="1" source="WOWgfYb7VURcwfjRC9Sh-1" target="WOWgfYb7VURcwfjRC9Sh-3">
          <mxGeometry relative="1" as="geometry" />
        </mxCell>
        <mxCell id="WOWgfYb7VURcwfjRC9Sh-1" value="User" style="shape=umlActor;html=1;verticalLabelPosition=bottom;verticalAlign=top;align=center;" vertex="1" parent="1">
          <mxGeometry x="-680" y="805" width="30" height="60" as="geometry" />
        </mxCell>
        <mxCell id="WOWgfYb7VURcwfjRC9Sh-22" style="edgeStyle=orthogonalEdgeStyle;rounded=0;orthogonalLoop=1;jettySize=auto;html=1;entryX=0;entryY=0.5;entryDx=0;entryDy=0;" edge="1" parent="1" source="WOWgfYb7VURcwfjRC9Sh-6" target="WOWgfYb7VURcwfjRC9Sh-17">
          <mxGeometry relative="1" as="geometry" />
        </mxCell>
        <mxCell id="WOWgfYb7VURcwfjRC9Sh-6" value="User" style="shape=umlActor;html=1;verticalLabelPosition=bottom;verticalAlign=top;align=center;" vertex="1" parent="1">
          <mxGeometry x="-110" y="805" width="30" height="60" as="geometry" />
        </mxCell>
        <mxCell id="SNysr1BYCSl26VMYgriE-1" value="sender&lt;div&gt;receiver&lt;/div&gt;&lt;div&gt;broadcast&lt;/div&gt;" style="rounded=1;whiteSpace=wrap;html=1;" vertex="1" parent="1">
          <mxGeometry x="-550" y="-230" width="120" height="60" as="geometry" />
        </mxCell>
        <mxCell id="WOWgfYb7VURcwfjRC9Sh-25" value="Signin/Login" style="swimlane;whiteSpace=wrap;html=1;" vertex="1" parent="1">
          <mxGeometry x="505" y="610" width="460" height="420" as="geometry" />
        </mxCell>
        <mxCell id="WOWgfYb7VURcwfjRC9Sh-26" value="Login" style="ellipse;whiteSpace=wrap;html=1;" vertex="1" parent="WOWgfYb7VURcwfjRC9Sh-25">
          <mxGeometry x="40" y="200" width="120" height="50" as="geometry" />
        </mxCell>
        <mxCell id="WOWgfYb7VURcwfjRC9Sh-27" value="Email confirmation" style="ellipse;whiteSpace=wrap;html=1;" vertex="1" parent="WOWgfYb7VURcwfjRC9Sh-25">
          <mxGeometry x="310" y="200" width="120" height="50" as="geometry" />
        </mxCell>
        <mxCell id="WOWgfYb7VURcwfjRC9Sh-28" value="&amp;lt;&amp;lt; extend &amp;gt;&amp;gt;" style="rounded=0;orthogonalLoop=1;jettySize=auto;html=1;exitX=1;exitY=0.5;exitDx=0;exitDy=0;entryX=0;entryY=0.5;entryDx=0;entryDy=0;dashed=1;startArrow=classic;startFill=1;endArrow=none;endFill=0;" edge="1" parent="WOWgfYb7VURcwfjRC9Sh-25" source="WOWgfYb7VURcwfjRC9Sh-26" target="WOWgfYb7VURcwfjRC9Sh-27">
          <mxGeometry x="0.0227" y="1" relative="1" as="geometry">
            <mxPoint as="offset" />
            <mxPoint x="104" y="200" as="sourcePoint" />
            <mxPoint x="227" y="106" as="targetPoint" />
          </mxGeometry>
        </mxCell>
        <mxCell id="WOWgfYb7VURcwfjRC9Sh-31" value="Password Recovery" style="ellipse;whiteSpace=wrap;html=1;" vertex="1" parent="WOWgfYb7VURcwfjRC9Sh-25">
          <mxGeometry x="40" y="340" width="120" height="50" as="geometry" />
        </mxCell>
        <mxCell id="WOWgfYb7VURcwfjRC9Sh-32" value="&amp;lt;&amp;lt; extend &amp;gt;&amp;gt;" style="rounded=0;orthogonalLoop=1;jettySize=auto;html=1;exitX=0.5;exitY=1;exitDx=0;exitDy=0;entryX=0.5;entryY=0;entryDx=0;entryDy=0;dashed=1;startArrow=classic;startFill=1;endArrow=none;endFill=0;" edge="1" parent="WOWgfYb7VURcwfjRC9Sh-25" source="WOWgfYb7VURcwfjRC9Sh-26" target="WOWgfYb7VURcwfjRC9Sh-31">
          <mxGeometry x="0.0227" y="1" relative="1" as="geometry">
            <mxPoint as="offset" />
            <mxPoint x="60" y="290" as="sourcePoint" />
            <mxPoint x="210" y="290" as="targetPoint" />
          </mxGeometry>
        </mxCell>
        <mxCell id="4e9tZ9EchVw7M_14rUX9-1" value="Signin" style="ellipse;whiteSpace=wrap;html=1;" vertex="1" parent="WOWgfYb7VURcwfjRC9Sh-25">
          <mxGeometry x="40" y="40" width="120" height="50" as="geometry" />
        </mxCell>
        <mxCell id="4e9tZ9EchVw7M_14rUX9-3" value="&amp;lt;&amp;lt; extend &amp;gt;&amp;gt;" style="rounded=0;orthogonalLoop=1;jettySize=auto;html=1;exitX=0.5;exitY=0;exitDx=0;exitDy=0;entryX=0.5;entryY=1;entryDx=0;entryDy=0;dashed=1;startArrow=classic;startFill=1;endArrow=none;endFill=0;" edge="1" parent="WOWgfYb7VURcwfjRC9Sh-25" source="WOWgfYb7VURcwfjRC9Sh-26" target="4e9tZ9EchVw7M_14rUX9-1">
          <mxGeometry x="0.0227" y="1" relative="1" as="geometry">
            <mxPoint as="offset" />
            <mxPoint x="170" y="235" as="sourcePoint" />
            <mxPoint x="320" y="235" as="targetPoint" />
          </mxGeometry>
        </mxCell>
        <mxCell id="CD-L5SUXFcGwonzsoIin-30" value="Password Recovery" style="ellipse;whiteSpace=wrap;html=1;" vertex="1" parent="WOWgfYb7VURcwfjRC9Sh-25">
          <mxGeometry x="245" y="330" width="120" height="50" as="geometry" />
        </mxCell>
        <mxCell id="WOWgfYb7VURcwfjRC9Sh-33" style="edgeStyle=orthogonalEdgeStyle;rounded=0;orthogonalLoop=1;jettySize=auto;html=1;entryX=0;entryY=0.5;entryDx=0;entryDy=0;" edge="1" parent="1" source="WOWgfYb7VURcwfjRC9Sh-34" target="WOWgfYb7VURcwfjRC9Sh-26">
          <mxGeometry relative="1" as="geometry" />
        </mxCell>
        <mxCell id="WOWgfYb7VURcwfjRC9Sh-34" value="User" style="shape=umlActor;html=1;verticalLabelPosition=bottom;verticalAlign=top;align=center;" vertex="1" parent="1">
          <mxGeometry x="425" y="805" width="30" height="60" as="geometry" />
        </mxCell>
        <mxCell id="4e9tZ9EchVw7M_14rUX9-4" value="&lt;span style=&quot;font-weight: 400;&quot;&gt;Disconnect/Sign Out&lt;/span&gt;" style="swimlane;whiteSpace=wrap;html=1;" vertex="1" parent="1">
          <mxGeometry x="1060" y="610" width="460" height="420" as="geometry" />
        </mxCell>
        <mxCell id="4e9tZ9EchVw7M_14rUX9-5" value="Sign Out" style="ellipse;whiteSpace=wrap;html=1;" vertex="1" parent="4e9tZ9EchVw7M_14rUX9-4">
          <mxGeometry x="170" y="200" width="120" height="50" as="geometry" />
        </mxCell>
        <mxCell id="4e9tZ9EchVw7M_14rUX9-10" value="Disconnect from peer" style="ellipse;whiteSpace=wrap;html=1;" vertex="1" parent="4e9tZ9EchVw7M_14rUX9-4">
          <mxGeometry x="170" y="40" width="120" height="50" as="geometry" />
        </mxCell>
        <mxCell id="4e9tZ9EchVw7M_14rUX9-11" value="&amp;lt;&amp;lt; include &amp;gt;&amp;gt;" style="rounded=0;orthogonalLoop=1;jettySize=auto;html=1;entryX=0.5;entryY=0;entryDx=0;entryDy=0;dashed=1;startArrow=classic;startFill=1;endArrow=none;endFill=0;exitX=0.5;exitY=1;exitDx=0;exitDy=0;" edge="1" parent="4e9tZ9EchVw7M_14rUX9-4" source="4e9tZ9EchVw7M_14rUX9-10" target="4e9tZ9EchVw7M_14rUX9-5">
          <mxGeometry x="0.0182" y="1" relative="1" as="geometry">
            <mxPoint as="offset" />
            <mxPoint x="320" y="130" as="sourcePoint" />
            <mxPoint x="320" y="235" as="targetPoint" />
          </mxGeometry>
        </mxCell>
        <mxCell id="4e9tZ9EchVw7M_14rUX9-12" style="edgeStyle=orthogonalEdgeStyle;rounded=0;orthogonalLoop=1;jettySize=auto;html=1;entryX=0;entryY=0.5;entryDx=0;entryDy=0;" edge="1" parent="1" source="4e9tZ9EchVw7M_14rUX9-13" target="4e9tZ9EchVw7M_14rUX9-5">
          <mxGeometry relative="1" as="geometry" />
        </mxCell>
        <mxCell id="4e9tZ9EchVw7M_14rUX9-13" value="User" style="shape=umlActor;html=1;verticalLabelPosition=bottom;verticalAlign=top;align=center;" vertex="1" parent="1">
          <mxGeometry x="1005" y="805" width="30" height="60" as="geometry" />
        </mxCell>
        <mxCell id="CD-L5SUXFcGwonzsoIin-1" value="Establish P2P connection" style="rounded=1;whiteSpace=wrap;html=1;" vertex="1" parent="1">
          <mxGeometry x="560" y="1475" width="150" height="30" as="geometry" />
        </mxCell>
        <mxCell id="CD-L5SUXFcGwonzsoIin-2" value="Message Notification" style="rounded=1;whiteSpace=wrap;html=1;" vertex="1" parent="1">
          <mxGeometry x="560" y="1625" width="100" height="30" as="geometry" />
        </mxCell>
        <mxCell id="CD-L5SUXFcGwonzsoIin-3" value="Add Contact" style="rounded=1;whiteSpace=wrap;html=1;" vertex="1" parent="1">
          <mxGeometry x="560" y="1575" width="100" height="30" as="geometry" />
        </mxCell>
        <mxCell id="CD-L5SUXFcGwonzsoIin-4" value="&lt;div&gt;User Status Notification&lt;/div&gt;&lt;div&gt;(Offline/Online)&lt;/div&gt;" style="rounded=1;whiteSpace=wrap;html=1;" vertex="1" parent="1">
          <mxGeometry x="560" y="1675" width="100" height="50" as="geometry" />
        </mxCell>
        <mxCell id="CD-L5SUXFcGwonzsoIin-5" value="History Persistence and Recovery" style="rounded=1;whiteSpace=wrap;html=1;" vertex="1" parent="1">
          <mxGeometry x="560" y="1815" width="100" height="50" as="geometry" />
        </mxCell>
        <mxCell id="CD-L5SUXFcGwonzsoIin-6" value="Encryption and Key Exchange" style="rounded=1;whiteSpace=wrap;html=1;" vertex="1" parent="1">
          <mxGeometry x="560" y="1745" width="100" height="50" as="geometry" />
        </mxCell>
        <mxCell id="CD-L5SUXFcGwonzsoIin-7" value="Depends on" style="text;html=1;align=center;verticalAlign=middle;whiteSpace=wrap;rounded=0;" vertex="1" parent="1">
          <mxGeometry x="710" y="1515" width="80" height="30" as="geometry" />
        </mxCell>
        <mxCell id="CD-L5SUXFcGwonzsoIin-8" value="Send Message" style="rounded=1;whiteSpace=wrap;html=1;" vertex="1" parent="1">
          <mxGeometry x="560" y="1365" width="100" height="30" as="geometry" />
        </mxCell>
        <mxCell id="CD-L5SUXFcGwonzsoIin-9" value="Receive Message" style="rounded=1;whiteSpace=wrap;html=1;" vertex="1" parent="1">
          <mxGeometry x="560" y="1415" width="100" height="30" as="geometry" />
        </mxCell>
        <mxCell id="CD-L5SUXFcGwonzsoIin-10" style="edgeStyle=orthogonalEdgeStyle;rounded=0;orthogonalLoop=1;jettySize=auto;html=1;entryX=0;entryY=0.5;entryDx=0;entryDy=0;" edge="1" parent="1" source="CD-L5SUXFcGwonzsoIin-11" target="CD-L5SUXFcGwonzsoIin-12">
          <mxGeometry relative="1" as="geometry" />
        </mxCell>
        <mxCell id="CD-L5SUXFcGwonzsoIin-11" value="Signin/Login" style="rounded=1;whiteSpace=wrap;html=1;" vertex="1" parent="1">
          <mxGeometry x="560" y="1525" width="100" height="30" as="geometry" />
        </mxCell>
        <mxCell id="CD-L5SUXFcGwonzsoIin-12" value="User" style="rounded=1;whiteSpace=wrap;html=1;" vertex="1" parent="1">
          <mxGeometry x="875" y="1525" width="100" height="30" as="geometry" />
        </mxCell>
        <mxCell id="CD-L5SUXFcGwonzsoIin-13" value="Disconnect/Sign Out" style="rounded=1;whiteSpace=wrap;html=1;" vertex="1" parent="1">
          <mxGeometry x="560" y="1885" width="100" height="50" as="geometry" />
        </mxCell>
        <mxCell id="CD-L5SUXFcGwonzsoIin-20" value="&lt;span style=&quot;font-weight: 400;&quot;&gt;AddContact&lt;/span&gt;" style="swimlane;whiteSpace=wrap;html=1;" vertex="1" parent="1">
          <mxGeometry x="-600" y="1080" width="460" height="420" as="geometry" />
        </mxCell>
        <mxCell id="CD-L5SUXFcGwonzsoIin-21" value="AddContact" style="ellipse;whiteSpace=wrap;html=1;" vertex="1" parent="CD-L5SUXFcGwonzsoIin-20">
          <mxGeometry x="40" y="200" width="120" height="50" as="geometry" />
        </mxCell>
        <mxCell id="CD-L5SUXFcGwonzsoIin-22" value="View Message" style="ellipse;whiteSpace=wrap;html=1;" vertex="1" parent="CD-L5SUXFcGwonzsoIin-20">
          <mxGeometry x="310" y="200" width="120" height="50" as="geometry" />
        </mxCell>
        <mxCell id="CD-L5SUXFcGwonzsoIin-23" value="&amp;lt;&amp;lt; extend &amp;gt;&amp;gt;" style="rounded=0;orthogonalLoop=1;jettySize=auto;html=1;exitX=1;exitY=0.5;exitDx=0;exitDy=0;entryX=0;entryY=0.5;entryDx=0;entryDy=0;dashed=1;startArrow=classic;startFill=1;endArrow=none;endFill=0;" edge="1" parent="CD-L5SUXFcGwonzsoIin-20" source="CD-L5SUXFcGwonzsoIin-21" target="CD-L5SUXFcGwonzsoIin-22">
          <mxGeometry x="0.0227" y="1" relative="1" as="geometry">
            <mxPoint as="offset" />
            <mxPoint x="104" y="200" as="sourcePoint" />
            <mxPoint x="227" y="106" as="targetPoint" />
          </mxGeometry>
        </mxCell>
        <mxCell id="CD-L5SUXFcGwonzsoIin-24" value="Connect to Peer" style="ellipse;whiteSpace=wrap;html=1;" vertex="1" parent="CD-L5SUXFcGwonzsoIin-20">
          <mxGeometry x="40" y="50" width="120" height="50" as="geometry" />
        </mxCell>
        <mxCell id="CD-L5SUXFcGwonzsoIin-25" value="&amp;lt;&amp;lt; Include &amp;gt;&amp;gt;" style="rounded=0;orthogonalLoop=1;jettySize=auto;html=1;exitX=0.5;exitY=1;exitDx=0;exitDy=0;dashed=1;startArrow=classic;startFill=1;endArrow=none;endFill=0;entryX=0.5;entryY=0;entryDx=0;entryDy=0;" edge="1" parent="CD-L5SUXFcGwonzsoIin-20" source="CD-L5SUXFcGwonzsoIin-24" target="CD-L5SUXFcGwonzsoIin-21">
          <mxGeometry x="0.0227" y="1" relative="1" as="geometry">
            <mxPoint as="offset" />
            <mxPoint x="110" y="210" as="sourcePoint" />
            <mxPoint x="130" y="190" as="targetPoint" />
          </mxGeometry>
        </mxCell>
        <mxCell id="CD-L5SUXFcGwonzsoIin-26" value="Reply to Message" style="ellipse;whiteSpace=wrap;html=1;" vertex="1" parent="CD-L5SUXFcGwonzsoIin-20">
          <mxGeometry x="40" y="340" width="120" height="50" as="geometry" />
        </mxCell>
        <mxCell id="CD-L5SUXFcGwonzsoIin-27" value="&amp;lt;&amp;lt; extend &amp;gt;&amp;gt;" style="rounded=0;orthogonalLoop=1;jettySize=auto;html=1;exitX=0.5;exitY=1;exitDx=0;exitDy=0;entryX=0.5;entryY=0;entryDx=0;entryDy=0;dashed=1;startArrow=classic;startFill=1;endArrow=none;endFill=0;" edge="1" parent="CD-L5SUXFcGwonzsoIin-20" source="CD-L5SUXFcGwonzsoIin-21" target="CD-L5SUXFcGwonzsoIin-26">
          <mxGeometry x="0.0227" y="1" relative="1" as="geometry">
            <mxPoint as="offset" />
            <mxPoint x="60" y="290" as="sourcePoint" />
            <mxPoint x="210" y="290" as="targetPoint" />
          </mxGeometry>
        </mxCell>
        <mxCell id="CD-L5SUXFcGwonzsoIin-28" style="edgeStyle=orthogonalEdgeStyle;rounded=0;orthogonalLoop=1;jettySize=auto;html=1;entryX=0;entryY=0.5;entryDx=0;entryDy=0;" edge="1" parent="1" source="CD-L5SUXFcGwonzsoIin-29" target="CD-L5SUXFcGwonzsoIin-21">
          <mxGeometry relative="1" as="geometry" />
        </mxCell>
        <mxCell id="CD-L5SUXFcGwonzsoIin-29" value="User" style="shape=umlActor;html=1;verticalLabelPosition=bottom;verticalAlign=top;align=center;" vertex="1" parent="1">
          <mxGeometry x="-680" y="1275" width="30" height="60" as="geometry" />
        </mxCell>
      </root>
    </mxGraphModel>
  </diagram>
</mxfile>
